<!DOCTYPE svg PUBLIC "-//W3C//DTD SVG 20010904//EN" "http://www.w3.org/TR/2001/REC-SVG-20010904/DTD/svg10.dtd">
<svg version="1.0" xmlns="http://www.w3.org/2000/svg" width="400px" height="300px" viewBox="0 0 4000 3000" preserveAspectRatio="xMidYMid meet">
<g id="layer1" fill="#1f1f1f" stroke="none">
 <path d="M1800 2150 c0 -5 7 -10 15 -10 8 0 15 5 15 10 0 6 -7 10 -15 10 -8 0 -15 -4 -15 -10z"/>
 <path d="M2110 2110 c0 -5 14 -10 30 -10 17 0 30 5 30 10 0 6 -13 10 -30 10 -16 0 -30 -4 -30 -10z"/>
 <path d="M2312 2098 c6 -18 28 -21 28 -4 0 9 -7 16 -16 16 -9 0 -14 -5 -12 -12z"/>
 <path d="M1360 2030 c0 -5 9 -10 20 -10 11 0 20 5 20 10 0 6 -9 10 -20 10 -11 0 -20 -4 -20 -10z"/>
 <path d="M2340 1986 c0 -8 7 -16 15 -20 17 -6 18 -4 9 18 -8 20 -24 21 -24 2z"/>
 <path d="M1296 1936 c21 -15 30 -14 19 3 -3 6 -14 11 -23 11 -13 0 -13 -2 4 -14z"/>
 <path d="M2560 1874 c0 -5 7 -19 15 -30 8 -10 15 -14 15 -8 0 5 -7 19 -15 30 -8 10 -15 14 -15 8z"/>
 <path d="M1760 1775 c0 -18 19 -40 26 -32 4 4 0 15 -9 24 -9 10 -17 13 -17 8z"/>
 <path d="M1320 1670 c0 -5 7 -10 15 -10 8 0 15 5 15 10 0 6 -7 10 -15 10 -8 0 -15 -4 -15 -10z"/>
 <path d="M1220 1660 c0 -5 7 -10 15 -10 8 0 15 5 15 10 0 6 -7 10 -15 10 -8 0 -15 -4 -15 -10z"/>
 <path d="M1735 1617 c-10 -25 22 -57 57 -57 37 0 36 16 -2 24 -19 3 -34 14 -39 28 -8 21 -10 21 -16 5z"/>
 <path d="M1880 1460 c0 -5 7 -10 15 -10 8 0 15 5 15 10 0 6 -7 10 -15 10 -8 0 -15 -4 -15 -10z"/>
 <path d="M2140 1460 c0 -5 7 -10 15 -10 8 0 15 5 15 10 0 6 -7 10 -15 10 -8 0 -15 -4 -15 -10z"/>
 <path d="M2098 1424 c-5 -4 -8 -19 -8 -33 0 -18 3 -22 11 -14 6 6 9 21 7 33 -1 12 -6 18 -10 14z"/>
 <path d="M2040 1410 c0 -5 7 -10 15 -10 8 0 15 5 15 10 0 6 -7 10 -15 10 -8 0 -15 -4 -15 -10z"/>
 <path d="M2192 1375 c-12 -27 -37 -33 -45 -12 -4 9 -6 9 -6 -1 -1 -7 6 -21 15 -29 14 -15 18 -14 40 13 24 29 31 54 16 54 -5 0 -14 -11 -20 -25z"/>
 <path d="M1940 1347 c0 -8 7 -21 16 -28 14 -11 15 -10 12 11 -3 26 -28 41 -28 17z"/>
 <path d="M2082 1078 c5 -32 28 -35 28 -4 0 17 -5 26 -16 26 -10 0 -14 -7 -12 -22z"/>
 <path d="M1365 1047 c-4 -10 -5 -21 -1 -24 10 -10 18 4 13 24 -4 17 -4 17 -12 0z"/>
 <path d="M1410 990 c0 -5 7 -10 15 -10 8 0 15 5 15 10 0 6 -7 10 -15 10 -8 0 -15 -4 -15 -10z"/>
 <path d="M1450 930 c0 -5 11 -10 25 -10 14 0 25 5 25 10 0 6 -11 10 -25 10 -14 0 -25 -4 -25 -10z"/>
 <path d="M2340 930 c0 -5 7 -10 15 -10 8 0 15 5 15 10 0 6 -7 10 -15 10 -8 0 -15 -4 -15 -10z"/>
 <path d="M1412 898 c6 -18 28 -21 28 -4 0 9 -7 16 -16 16 -9 0 -14 -5 -12 -12z"/>
 <path d="M1510 895 c0 -8 5 -15 10 -15 6 0 10 7 10 15 0 8 -4 15 -10 15 -5 0 -10 -7 -10 -15z"/>
 <path d="M2560 845 c0 -13 32 -66 36 -62 6 6 -23 67 -31 67 -3 0 -5 -2 -5 -5z"/>
 <path d="M1560 775 c0 -9 9 -15 25 -15 16 0 25 6 25 15 0 9 -9 15 -25 15 -16 0 -25 -6 -25 -15z"/>
 </g>
<g id="layer2" fill="#333333" stroke="none">
 <path d="M1778 2260 c-318 -58 -570 -290 -649 -597 -26 -105 -26 -272 1 -378 117 -458 607 -719 1043 -555 68 26 71 38 19 97 l-37 42 -65 -20 c-36 -11 -103 -23 -150 -26 -261 -17 -513 125 -621 352 -59 122 -72 188 -67 330 3 66 10 132 16 148 l12 28 39 -21 c49 -25 116 -26 155 -2 21 13 45 16 98 14 l70 -4 117 -113 c64 -62 131 -120 150 -130 32 -16 34 -16 54 4 30 30 16 64 -89 211 l-89 125 3 69 c2 63 5 72 37 108 31 34 35 44 35 92 0 30 -4 58 -10 61 -5 3 -10 13 -10 22 0 14 12 15 94 10 299 -20 529 -209 602 -497 25 -100 16 -282 -21 -380 l-28 -74 43 -38 c23 -21 49 -38 57 -38 19 0 58 88 83 185 27 107 27 273 0 381 -58 226 -210 413 -422 520 -37 18 -100 43 -140 54 -82 23 -255 34 -330 20z"/>
 <path d="M2106 1474 c-5 -24 -12 -34 -21 -30 -7 2 -30 8 -51 12 l-37 7 7 -37 c6 -29 4 -38 -10 -43 -9 -3 -25 -1 -35 5 -10 7 -23 12 -28 12 -14 0 -21 -42 -9 -63 14 -26 -11 -46 -47 -39 -33 6 -32 -12 2 -57 62 -82 115 -129 168 -151 30 -12 55 -28 55 -36 0 -18 136 -181 219 -261 127 -124 258 -209 332 -215 33 -3 34 -2 37 35 10 119 -135 367 -344 590 -39 41 -54 65 -54 85 0 16 -13 48 -28 73 -38 59 -121 149 -137 149 -7 0 -16 -16 -19 -36z m31 -153 c131 -109 310 -316 405 -468 32 -52 82 -172 75 -180 -3 -2 -397 459 -520 609 -44 54 -55 88 -28 88 6 0 36 -22 68 -49z"/>
 </g>
<g id="layer3" fill="#e4e4e4" stroke="none">
 <path d="M0 1500 l0 -1500 2000 0 2000 0 0 1500 0 1500 -2000 0 -2000 0 0 -1500z m2108 720 c269 -76 475 -286 542 -554 39 -157 22 -369 -42 -507 l-23 -49 -39 33 -38 33 27 74 c37 98 46 280 21 380 -76 299 -336 510 -633 514 l-98 1 3 -25 c17 -125 15 -136 -21 -177 -28 -32 -35 -48 -40 -101 l-7 -62 77 -113 c42 -61 84 -122 94 -135 22 -29 34 -81 21 -94 -18 -18 -74 22 -194 138 l-118 114 -72 0 c-44 -1 -83 -6 -98 -15 -37 -21 -103 -18 -155 7 -24 12 -47 20 -49 17 -3 -3 -12 -31 -21 -64 -19 -76 -20 -243 0 -320 49 -195 205 -378 388 -460 133 -59 318 -69 455 -26 l64 19 29 -31 c15 -18 29 -37 29 -44 0 -6 -28 -21 -62 -32 -245 -80 -498 -40 -712 113 -122 87 -222 227 -273 381 -34 105 -44 303 -19 408 74 314 312 538 634 597 75 14 248 3 330 -20z m133 -859 c16 -25 29 -58 29 -74 0 -23 17 -47 75 -109 182 -193 325 -437 325 -555 0 -31 -2 -33 -27 -27 -128 30 -312 182 -488 404 -60 76 -86 99 -124 116 -35 16 -65 41 -105 90 l-57 69 31 6 c46 10 56 23 42 54 -14 30 -6 53 11 36 29 -29 85 10 72 50 -8 23 -1 23 61 4 19 -6 24 -1 34 31 l13 38 40 -44 c22 -25 53 -65 68 -89z"/>
 <path d="M2040 1365 c-12 -23 -7 -31 108 -167 332 -394 468 -552 480 -556 35 -11 -11 118 -84 236 -26 41 -74 109 -107 151 -110 139 -338 361 -371 361 -7 0 -19 -11 -26 -25z"/>
 </g>

</svg>